<?xml version="1.0" encoding="UTF-8" standalone="no"?>
<svg
   xmlns:dc="http://purl.org/dc/elements/1.1/"
   xmlns:cc="http://creativecommons.org/ns#"
   xmlns:rdf="http://www.w3.org/1999/02/22-rdf-syntax-ns#"
   xmlns:svg="http://www.w3.org/2000/svg"
   xmlns="http://www.w3.org/2000/svg"
   xmlns:sodipodi="http://sodipodi.sourceforge.net/DTD/sodipodi-0.dtd"
   xmlns:inkscape="http://www.inkscape.org/namespaces/inkscape"
   id="Capa_1"
   enable-background="new 0 0 512 512"
   height="512"
   viewBox="0 0 512 512"
   width="512"
   version="1.1"
   sodipodi:docname="bumper-car.svg"
   inkscape:version="1.0.2 (1.0.2+r75+1)">
  <metadata
     id="metadata41">
    <rdf:RDF>
      <cc:Work
         rdf:about="">
        <dc:format>image/svg+xml</dc:format>
        <dc:type
           rdf:resource="http://purl.org/dc/dcmitype/StillImage" />
        <dc:title></dc:title>
      </cc:Work>
    </rdf:RDF>
  </metadata>
  <defs
     id="defs39" />
  <sodipodi:namedview
     pagecolor="#ffffff"
     bordercolor="#666666"
     borderopacity="1"
     objecttolerance="10"
     gridtolerance="10"
     guidetolerance="10"
     inkscape:pageopacity="0"
     inkscape:pageshadow="2"
     inkscape:window-width="1920"
     inkscape:window-height="1052"
     id="namedview37"
     showgrid="false"
     inkscape:zoom="0.43798828"
     inkscape:cx="-207.78937"
     inkscape:cy="264.32968"
     inkscape:window-x="0"
     inkscape:window-y="0"
     inkscape:window-maximized="1"
     inkscape:current-layer="Capa_1" />
  <path
     d="m149.552 463.834h212.898c32.683 0 63.851-13.953 85.488-38.448 39.964-45.245 64.181-104.724 64.062-169.866-.259-140.917-115.47-255.728-256.387-255.52-141.207.209-255.613 114.744-255.613 256 0 64.879 24.14 124.115 63.924 169.229 21.665 24.567 52.872 38.605 85.628 38.605z"
     fill="#ffe853"
     id="path2"
     style="fill:#ffe27b;fill-opacity:1" />
  <path
     d="m149.544 463.834h212.912c32.76 0 63.97-14.04 85.635-38.613 39.775-45.116 63.909-104.354 63.909-169.221 0-46.22-12.25-89.57-33.68-127-44.11 77.07-127.16 129-222.32 129s-178.2-51.93-222.32-129c-21.43 37.43-33.68 80.78-33.68 127 0 64.867 24.133 124.105 63.909 169.221 21.665 24.573 52.875 38.613 85.635 38.613z"
     fill="#fed110"
     id="path4"
     style="fill:#ffcc1f;fill-opacity:1" />
  <path
     d="m30.74 377.7v.01c9.38 17.328 20.704 33.451 33.677 48.077 21.562 24.31 52.632 38.047 85.127 38.047h212.912c32.495 0 63.565-13.737 85.127-38.047 12.974-14.626 24.297-30.749 33.677-48.077v-.01z"
     fill="#ff9f00"
     id="path6"
     style="fill:#bb9400;fill-opacity:1" />
  <path
     d="m414.901 433.5-158.898-38.576-158.898 38.576h-25.565c46.57 48.39 112 78.5 184.46 78.5s137.89-30.11 184.46-78.5z"
     fill="#68638e"
     id="path8" />
  <path
     d="m414.901 433.5-158.898-38.576-.003 117.076c72.46 0 137.89-30.11 184.46-78.5z"
     fill="#474f6f"
     id="path10" />
  <circle
     cx="376.723"
     cy="353.242"
     fill="#ffe853"
     r="18.279"
     id="circle12" />
  <path
     d="m320.308 363.124h16.077c5.458 0 9.882-4.424 9.882-9.882 0-5.458-4.424-9.882-9.882-9.882h-16.077c-5.458 0-9.882 4.424-9.882 9.882 0 5.458 4.425 9.882 9.882 9.882z"
     fill="#ffe853"
     id="path14" />
  <path
     d="m161.794 106.996v16.656c0 7.056-5.728 12.8-12.8 12.8s-12.8-5.744-12.8-12.8v-16.656c0-5.312-4.32-9.632-9.616-9.632-5.312 0-9.632 4.32-9.632 9.632v307.208c0 7.072-5.728 12.8-12.8 12.8s-12.8-5.728-12.8-12.8v-307.208c0-19.424 15.808-35.232 35.232-35.232 19.407 0 35.216 15.808 35.216 35.232z"
     fill="#474f6f"
     id="path16" />
  <path
     d="m148.993 106.996v29.456c-7.072 0-12.8-5.744-12.8-12.8v-16.656c0-5.312-4.32-9.632-9.616-9.632-5.312 0-9.632 4.32-9.632 9.632v307.208c0 7.072-5.728 12.8-12.8 12.8v-320.008c0-12.4 10.032-22.432 22.432-22.432 12.384 0 22.416 10.032 22.416 22.432z"
     fill="#313b5a"
     id="path18" />
  <path
     d="m104.145 242.922v184.082c-7.072 0-12.8-5.728-12.8-12.8v-171.282z"
     fill="#fff"
     id="path20" />
  <path
     d="m116.945 242.922v171.282c0 7.072-5.728 12.8-12.8 12.8v-184.082z"
     fill="#d1f6ff"
     id="path22" />
  <path
     d="m373.189 394.924h-269.044v-113.602c0-10.592 4.304-20.193 11.248-27.153 7.12-7.104 17.008-11.44 27.888-11.248 21.072.4 37.665 18.208 37.665 39.28v36.721h75.057v-58.257c0-9.632 7.904-17.472 17.537-17.216h.128c50.881 4.208 94.657 33.488 118.93 75.473 5.728 9.872 10.352 20.432 13.744 31.552 6.767 22.129-10.017 44.45-33.153 44.45z"
     fill="#ff1d56"
     id="path24"
     style="fill:#5685ab;fill-opacity:1" />
  <path
     d="m373.189 394.924h-117.186v-134.259c0-9.632 7.904-17.472 17.537-17.216h.128c50.881 4.208 94.657 33.488 118.93 75.473 5.728 9.872 10.352 20.432 13.744 31.552 6.767 22.129-10.017 44.45-33.153 44.45z"
     fill="#dd1265"
     id="path26"
     style="fill:#366e9c;fill-opacity:1" />
  <path
     d="m180.954 281.317-.008 37.605-38.393-.005v-76.001c21.2.001 38.401 17.201 38.401 38.401z"
     fill="#313b5a"
     id="path28" />
  <path
     d="m434.182 414.204v.016c0 10.64-8.624 19.28-19.28 19.28h-317.797c-10.656 0-19.296-8.64-19.296-19.28v-.016c0-10.64 8.64-19.28 19.296-19.28h317.796c10.656 0 19.281 8.64 19.281 19.28z"
     fill="#474f6f"
     id="path30" />
  <path
     d="m434.182 414.204v.016c0 10.64-8.624 19.28-19.28 19.28h-158.899v-38.576h158.898c10.656 0 19.281 8.64 19.281 19.28z"
     fill="#313b5a"
     id="path32" />
  <path
     d="m392.597 318.923h-136.594v-58.257c0-9.632 7.904-17.472 17.537-17.216h.128c50.88 4.208 94.656 33.488 118.929 75.473z"
     fill="#a10d59"
     id="path34"
     style="fill:#274e70;fill-opacity:1" />
</svg>
